<?xml version="1.0" encoding="UTF-8"?>
<svg id="Layer_2" data-name="Layer 2" xmlns="http://www.w3.org/2000/svg" viewBox="0 0 899.77 170.98">
  <defs>
    <style>
      .cls-1 {
        stroke: #35d87a;
        stroke-miterlimit: 10;
        stroke-width: 5px;
      }

      .cls-1, .cls-2 {
        fill: #35d87a;
      }

      .cls-3 {
        fill: #153f5e;
      }
    </style>
  </defs>
  <g id="Layer_1-2" data-name="Layer 1">
    <g>
      <g>
        <g>
          <path class="cls-3" d="M733.45,48.3c.75,.36,1.12,.54,1.87,.9-1.19,2.53-1.74,3.84-2.76,6.53,.84,.32,1.25,.48,2.09,.8,.74-1.96,1.13-2.92,1.97-4.8,.73,.33,1.1,.5,1.83,.84-.81,1.83-1.2,2.76-1.92,4.68,1.6,.61,2.4,.92,4.01,1.53-.55,1.45-.81,2.19-1.29,3.69-4.03-1.31-6.05-1.97-10.08-3.28,1.49-4.58,2.35-6.76,4.3-10.9Z"/>
          <path class="cls-3" d="M748.2,42.51c-1.03,.7-2.07,1.14-3.14,1.29-1.07,.16-2.06-.02-2.94-.56-.88-.54-1.49-1.35-1.79-2.44-.3-1.09-.29-2.32,.05-3.66,.34-1.35,.98-2.66,1.91-3.91,.93-1.25,1.99-2.21,3.16-2.89,1.16-.68,2.3-1,3.39-.97,1.09,.03,2.01,.41,2.77,1.12,.76,.71,1.22,1.6,1.39,2.66,.17,1.06,.07,2.16-.29,3.33-.36,1.17-.94,2.28-1.76,3.37-.81,1.09-1.72,1.98-2.75,2.68Zm1.95-6.9c.01-.92-.33-1.68-1.04-2.28-.72-.61-1.53-.81-2.44-.57-.91,.23-1.76,.86-2.53,1.89-.78,1.04-1.15,2.06-1.14,3.02,.02,.95,.43,1.7,1.21,2.24,.77,.53,1.6,.64,2.47,.36,.87-.28,1.65-.9,2.37-1.87,.71-.96,1.07-1.87,1.09-2.79Z"/>
          <path class="cls-3" d="M757.02,18.15c1.6,1.99,2.39,2.98,3.99,4.97,.4,.5,.87,.75,1.42,.75,.54,0,1.13-.23,1.78-.72,.65-.48,1.05-.98,1.2-1.51,.15-.53,.05-1.06-.32-1.58-1.47-2.08-2.2-3.13-3.67-5.21,1.25-.87,1.88-1.29,3.16-2.1,1.37,2.14,2.06,3.21,3.43,5.35,.51,.8,.71,1.62,.63,2.46-.09,.84-.4,1.64-.94,2.41-.54,.77-1.23,1.48-2.1,2.13s-1.73,1.12-2.61,1.41c-.88,.29-1.72,.36-2.54,.19-.82-.17-1.55-.6-2.18-1.31-1.68-1.91-2.52-2.87-4.2-4.78,1.16-1.02,1.75-1.52,2.95-2.48Z"/>
          <path class="cls-3" d="M788.66,13.36c-1.26,.38-1.88,.58-3.12,1.02-2.97-1.74-4.53-2.54-7.79-3.99,1.07,2.4,1.6,3.59,2.67,5.99-1.21,.52-1.81,.8-2.99,1.38-1.9-3.81-2.85-5.71-4.75-9.52,1.35-.66,2.03-.97,3.41-1.57,3.38,1.41,5,2.2,8.08,3.91-.9-2.48-1.35-3.71-2.24-6.19,1.41-.5,2.12-.73,3.55-1.16,1.27,4.05,1.91,6.08,3.18,10.13Z"/>
          <path class="cls-3" d="M804.38,.34c1.23,.35,2.18,.92,2.87,1.69,.68,.77,1.03,1.68,1.07,2.73,.04,1.04-.23,1.97-.79,2.8-.56,.83-1.36,1.5-2.39,2.03-1.03,.53-2.23,.86-3.63,1.04-2,.25-2.99,.41-4.97,.79-.83-4.16-1.25-6.24-2.08-10.41,2.25-.43,3.39-.61,5.66-.9,1.6-.2,3.03-.12,4.26,.23Zm-.5,6.97c.66-.6,.96-1.38,.88-2.35-.08-.97-.51-1.7-1.32-2.18-.81-.47-1.9-.63-3.27-.46-.68,.09-1.02,.14-1.7,.24,.38,2.44,.57,3.66,.95,6.09,.63-.09,.95-.14,1.58-.22,1.26-.16,2.22-.53,2.88-1.12Z"/>
          <path class="cls-3" d="M828.04,11.47c-.71-.41-1.25-.89-1.62-1.47-.37-.57-.51-1.2-.41-1.89,1.43,.26,2.14,.4,3.56,.72-.04,.39,.07,.73,.31,.99,.25,.27,.6,.46,1.07,.58,.48,.12,.89,.13,1.21,.04,.33-.1,.53-.29,.62-.59,.07-.25,.02-.49-.16-.72-.18-.22-.42-.43-.73-.63-.3-.19-.75-.43-1.33-.71-.84-.41-1.53-.78-2.06-1.11-.53-.33-.96-.73-1.3-1.21-.34-.48-.45-1.05-.33-1.71,.18-.97,.82-1.65,1.94-2,1.12-.35,2.5-.34,4.12,.05,1.64,.4,2.88,1.04,3.7,1.87,.82,.83,1.09,1.73,.85,2.7-1.49-.47-2.24-.69-3.75-1.09,.06-.34-.04-.64-.3-.92-.26-.27-.65-.47-1.14-.59-.43-.1-.8-.11-1.1,0-.3,.1-.49,.31-.56,.61-.08,.33,.08,.64,.47,.93,.39,.29,1.02,.65,1.87,1.1,.85,.45,1.52,.88,2.02,1.25,.5,.37,.89,.8,1.17,1.31,.28,.51,.31,1.07,.12,1.67-.19,.58-.56,1.03-1.09,1.39-.53,.35-1.2,.56-1.99,.64-.8,.08-1.68-.01-2.66-.26-.95-.24-1.78-.56-2.49-.96Z"/>
          <path class="cls-3" d="M858.72,12.99c-2.32,3.58-3.47,5.36-5.79,8.94-1.12-.72-1.69-1.06-2.84-1.73,.89-1.51,1.33-2.27,2.22-3.78-1.89-1.09-2.85-1.6-4.8-2.55-.78,1.57-1.18,2.35-1.96,3.92-1.19-.58-1.78-.86-2.99-1.38,1.74-3.88,2.61-5.83,4.34-9.71,1.38,.6,2.06,.91,3.41,1.57-.75,1.49-1.12,2.24-1.86,3.73,2,.98,2.99,1.5,4.93,2.62,.85-1.44,1.27-2.16,2.11-3.6,1.31,.76,1.96,1.15,3.23,1.97Z"/>
          <path class="cls-3" d="M867.92,22.57c-.57,.64-.86,.97-1.43,1.61,1.47,1.31,2.19,1.99,3.58,3.41-.57,.57-.85,.85-1.42,1.41-1.36-1.38-2.06-2.05-3.5-3.33-.62,.7-.93,1.05-1.55,1.75,1.57,1.41,2.34,2.14,3.83,3.67-.59,.58-.89,.87-1.48,1.45-2.4-2.48-3.67-3.63-6.3-5.77,2.69-3.3,4.04-4.96,6.73-8.26,3,2.44,4.44,3.75,7.18,6.58-.59,.58-.89,.87-1.48,1.45-1.61-1.66-2.44-2.46-4.14-3.98Z"/>
          <path class="cls-3" d="M875.11,40.55c1.09,1.57,1.62,2.38,2.63,4.05-.68,.42-1.02,.63-1.7,1.06-1.74-2.86-2.67-4.22-4.65-6.8,3.35-2.63,5.02-3.94,8.37-6.57,.98,1.27,1.45,1.92,2.38,3.25-2.81,2.01-4.22,3.01-7.03,5.01Z"/>
          <path class="cls-3" d="M893.78,59.2c-.79,.26-1.18,.38-1.97,.64-.91-2.8-1.41-4.15-2.5-6.78-.82,.35-1.24,.52-2.06,.87,.79,1.92,1.16,2.9,1.86,4.9-.76,.26-1.14,.4-1.9,.66-.68-1.96-1.04-2.91-1.81-4.78-1.58,.67-2.37,1-3.95,1.67-.58-1.41-.89-2.11-1.53-3.47,3.82-1.84,5.74-2.77,9.56-4.61,1.94,4.14,2.81,6.32,4.3,10.9Z"/>
        </g>
        <g>
          <path class="cls-3" d="M742.97,118.04c-.75,.36-1.12,.54-1.87,.9-1.1-2.34-1.61-3.54-2.55-6.04-.84,.32-1.25,.48-2.09,.8,.72,1.92,1.11,2.85,1.92,4.68-.73,.33-1.1,.5-1.83,.84-.83-1.87-1.23-2.83-1.97-4.8-1.6,.61-2.4,.92-4.01,1.53-.62-1.65-.92-2.49-1.48-4.21,4.03-1.31,6.05-1.97,10.09-3.28,1.31,4.02,2.07,5.93,3.77,9.57Z"/>
          <path class="cls-3" d="M740.37,133.8c-.34-1.35-.35-2.58-.04-3.67,.31-1.09,.91-1.9,1.8-2.45s1.87-.72,2.94-.56c1.07,.16,2.11,.6,3.14,1.3,1.03,.7,1.93,1.59,2.75,2.68,.81,1.09,1.4,2.2,1.76,3.37,.37,1.17,.47,2.27,.29,3.32s-.63,1.94-1.4,2.64c-.76,.71-1.69,1.09-2.78,1.11-1.1,.02-2.23-.29-3.39-.96-1.16-.67-2.22-1.64-3.15-2.89-.93-1.25-1.57-2.56-1.91-3.91Zm6.32,4.37c.91,.23,1.72,.03,2.43-.57,.72-.61,1.06-1.37,1.04-2.28-.02-.91-.38-1.83-1.09-2.78-.72-.97-1.5-1.59-2.36-1.87-.87-.28-1.69-.17-2.48,.37-.77,.53-1.18,1.27-1.21,2.23-.02,.96,.35,1.98,1.13,3.02,.77,1.03,1.62,1.66,2.54,1.89Z"/>
          <path class="cls-3" d="M763.66,144.52c-1.6,1.99-2.39,2.98-3.99,4.97-.4,.5-.53,1.02-.4,1.57,.14,.55,.56,1.09,1.25,1.61,.7,.52,1.34,.77,1.92,.76,.58-.01,1.04-.29,1.41-.81,1.47-2.08,2.2-3.13,3.67-5.21,1.1,.76,1.65,1.13,2.78,1.84-1.37,2.14-2.06,3.21-3.43,5.35-.51,.8-1.19,1.33-2.03,1.56-.85,.24-1.78,.21-2.79-.08-1.01-.29-2.02-.81-3.02-1.55-.99-.74-1.76-1.56-2.31-2.43-.55-.87-.82-1.75-.81-2.62,0-.87,.34-1.65,.97-2.37,1.68-1.91,2.52-2.87,4.2-4.78,1.02,.9,1.54,1.33,2.59,2.17Z"/>
          <path class="cls-3" d="M785.46,167.75c-1.43-.43-2.14-.67-3.56-1.16-1.47-3.29-2.1-4.96-3.16-8.28-1.07,2.4-1.6,3.59-2.67,5.99-1.38-.6-2.06-.91-3.41-1.57,1.9-3.81,2.85-5.71,4.75-9.52,1.19,.58,1.79,.85,3,1.38,.95,3.29,1.52,4.93,2.88,8.2,.9-2.48,1.35-3.72,2.24-6.19,1.24,.43,1.86,.64,3.12,1.02-1.27,4.05-1.91,6.08-3.18,10.13Z"/>
          <path class="cls-3" d="M805.14,161.4c1.03,.53,1.82,1.19,2.38,2.02,.56,.83,.83,1.76,.79,2.81-.04,1.04-.39,1.95-1.07,2.72-.68,.77-1.64,1.35-2.88,1.69-1.24,.35-2.67,.43-4.25,.23-2.28-.29-3.41-.47-5.67-.9,.83-4.16,1.25-6.24,2.08-10.41,1.98,.38,2.97,.54,4.97,.79,1.41,.18,2.61,.52,3.64,1.04Zm-1.7,6.78c.8-.46,1.24-1.19,1.32-2.16,.08-.97-.22-1.76-.88-2.36-.66-.61-1.61-.98-2.88-1.14-.63-.08-.95-.13-1.58-.22-.38,2.44-.57,3.65-.95,6.09,.68,.1,1.02,.15,1.7,.24,1.36,.18,2.46,.02,3.27-.44Z"/>
          <path class="cls-3" d="M830.24,169.33c-.92-.06-1.69-.29-2.3-.68-.61-.39-.99-.93-1.14-1.6,1.51-.27,2.26-.42,3.75-.76,.14,.37,.4,.62,.76,.75,.37,.13,.81,.13,1.32,0,.52-.13,.92-.32,1.17-.57,.25-.25,.34-.53,.25-.83-.07-.25-.25-.43-.53-.53-.28-.1-.61-.16-.98-.18-.37-.02-.89-.02-1.56,0-.96,.01-1.76-.04-2.38-.13-.62-.09-1.18-.3-1.67-.63-.49-.33-.79-.82-.92-1.48-.18-.97,.14-1.81,.92-2.53,.78-.73,1.87-1.24,3.28-1.59,1.44-.35,2.66-.41,3.7-.13s1.76,.86,2.13,1.79c-1.41,.44-2.12,.65-3.54,1.03-.12-.32-.35-.54-.69-.66-.34-.11-.74-.11-1.2,0-.39,.1-.69,.25-.9,.47-.2,.22-.27,.48-.2,.78,.08,.33,.35,.55,.81,.64,.46,.09,1.17,.13,2.11,.12,.94-.01,1.73,0,2.35,.04,.62,.04,1.19,.19,1.72,.45,.53,.26,.9,.68,1.1,1.29,.19,.58,.16,1.16-.11,1.76-.27,.6-.76,1.16-1.49,1.67-.73,.51-1.65,.92-2.77,1.2-1.09,.27-2.1,.37-3.02,.31Z"/>
          <path class="cls-3" d="M852.96,149.04c2.32,3.57,3.47,5.36,5.79,8.94-1.28,.82-1.93,1.21-3.24,1.97-.89-1.51-1.33-2.27-2.22-3.78-1.93,1.12-2.92,1.64-4.92,2.62,.78,1.57,1.18,2.35,1.96,3.92-1.35,.66-2.04,.98-3.41,1.57-1.74-3.88-2.61-5.83-4.34-9.71,1.21-.53,1.81-.8,2.99-1.38,.75,1.49,1.12,2.24,1.86,3.73,1.95-.95,2.91-1.46,4.79-2.55-.85-1.44-1.27-2.16-2.11-3.6,1.15-.66,1.72-1.01,2.84-1.73Z"/>
          <path class="cls-3" d="M863.63,143.55c.57,.64,.86,.97,1.43,1.61,1.43-1.28,2.13-1.94,3.49-3.32,.57,.57,.85,.85,1.42,1.41-1.4,1.41-2.11,2.1-3.58,3.41,.62,.7,.93,1.05,1.55,1.75,1.71-1.52,2.54-2.32,4.15-3.98,.59,.58,.89,.87,1.48,1.45-2.74,2.83-4.18,4.14-7.18,6.58-2.69-3.3-4.04-4.96-6.73-8.26,2.63-2.14,3.9-3.29,6.3-5.77,.59,.58,.89,.87,1.48,1.45-1.49,1.53-2.26,2.27-3.83,3.68Z"/>
          <path class="cls-3" d="M880.55,134.26c1.19-1.71,1.76-2.58,2.85-4.39,.68,.42,1.02,.63,1.7,1.06-1.98,3.26-3.04,4.81-5.3,7.75-3.35-2.63-5.02-3.95-8.37-6.57,.86-1.12,1.28-1.69,2.09-2.86,2.81,2.01,4.22,3.01,7.03,5.01Z"/>
          <path class="cls-3" d="M883.74,108.47c.79,.26,1.18,.38,1.97,.64-.84,2.58-1.3,3.84-2.31,6.27,.82,.35,1.24,.52,2.06,.87,.77-1.87,1.14-2.83,1.81-4.79,.76,.26,1.14,.4,1.9,.66-.7,2.01-1.07,2.99-1.86,4.91,1.58,.67,2.37,1,3.95,1.67-.67,1.61-1.01,2.4-1.74,3.95-3.82-1.84-5.74-2.77-9.56-4.61,1.71-3.64,2.47-5.55,3.77-9.57Z"/>
        </g>
        <circle class="cls-2" cx="893.92" cy="82.93" r="5.85"/>
        <circle class="cls-2" cx="729.01" cy="82.93" r="5.85"/>
        <g>
          <path class="cls-2" d="M800.41,59.81c-1.41,0-2.76,.24-4.02,.68,.83,1.2,1.31,2.65,1.31,4.22,0,4.11-3.33,7.44-7.44,7.44-.69,0-1.37-.1-2-.28,0,.03,0,.06,0,.08,0,6.71,5.44,12.15,12.15,12.15s12.15-5.44,12.15-12.15-5.44-12.15-12.15-12.15Z"/>
          <path class="cls-2" d="M851.69,114.19l-.49,.07c.16-.06,.33-.09,.49-.07-.26-1.24-.87-2.43-1.84-3.39l-12.17-12.03c-1.33-1.33-3.07-1.99-4.81-1.99-.47,0-.95,.05-1.42,.15l-7.24-7.24c3.77-5.06,5.82-11.16,5.82-17.59,0-7.87-3.07-15.27-8.63-20.84-5.57-5.57-12.97-8.63-20.84-8.63,0,0,0,0,0,0-7.87,0-15.27,3.07-20.84,8.63s-8.63,12.97-8.63,20.84,3.07,15.27,8.63,20.84c5.57,5.57,12.97,8.63,20.84,8.63,0,0,0,0,0,0,6.42,0,12.53-2.04,17.59-5.82l7.24,7.24c-.46,2.18,.15,4.54,1.84,6.23l7.59,7.5,4.59,4.53c1.33,1.33,3.07,1.99,4.81,1.99s3.48-.66,4.81-1.99l.82-.82c1.69-1.69,2.3-4.06,1.84-6.24Zm-36.37-27.32c-4.07,4.07-9.42,6.11-14.77,6.11s-10.7-2.04-14.77-6.11c-8.15-8.15-8.15-21.4,0-29.54,4.07-4.07,9.42-6.11,14.77-6.11,5.35,0,10.7,2.04,14.77,6.11,8.15,8.15,8.15,21.4,0,29.54Z"/>
        </g>
      </g>
      <g>
        <path class="cls-3" d="M0,48.13H48.41v14.51H18.11v15.68h22.67v14.09H18.11v30.08H0V48.13Z"/>
        <path class="cls-3" d="M140.89,48.13h18.11v44.49c0,8.79,4.34,13.88,12.92,13.88s13.13-5.08,13.13-13.88V48.13h18.11v44.38c0,20.55-14.41,30.72-31.57,30.72s-30.72-10.17-30.72-30.72V48.13Z"/>
        <path class="cls-3" d="M282.41,48.13V122.49h-18.11l-30.3-45.87v45.87h-18.11V48.13h18.11l30.3,46.08V48.13h18.11Z"/>
        <path class="cls-3" d="M362.39,85.31c0,22.03-15.25,37.18-38.98,37.18h-27.86V48.13h27.86c23.73,0,38.98,15.04,38.98,37.18Zm-40.15,21.5c13.66,0,21.72-7.84,21.72-21.5s-8.05-21.72-21.72-21.72h-8.58v43.22h8.58Z"/>
        <path class="cls-2" d="M408.47,68.69c0-4.55,3.21-6.72,7.45-6.62,4.76,.1,8.07,2.9,8.38,7.55h19.13c-.65-12.43-9.26-20.36-22.49-21.47-7.66-.64-14.75,.82-19.94,2.99-7.13,2.98-11.24,9.65-11.24,18.17-.21,25.75,36.09,18.51,36.09,31.96,0,4.24-3.31,6.83-8.48,6.83s-8.48-2.69-9-8.27h-18.82c.52,14.69,12.72,22.44,28.34,22.44,16.96,0,26.48-10.14,26.48-22.34,0-24.3-35.89-18.62-35.89-31.23Z"/>
        <polygon class="cls-3" points="500.42 77.38 472.91 77.38 472.91 48.94 455.22 48.94 455.22 121.54 472.91 121.54 472.91 91.65 500.42 91.65 500.42 121.54 518.1 121.54 518.1 48.94 500.42 48.94 500.42 77.38"/>
        <polygon class="cls-3" points="530.82 121.54 575.29 121.54 575.29 107.37 548.51 107.37 548.51 91.44 572.19 91.44 572.19 77.79 548.51 77.79 548.51 63.1 575.29 63.1 575.29 48.94 530.82 48.94 530.82 121.54"/>
        <polygon class="cls-3" points="604.46 48.94 586.78 48.94 586.78 121.54 627.63 121.54 627.63 107.89 604.46 107.89 604.46 48.94"/>
        <polygon class="cls-3" points="683.37 63.1 683.37 48.94 636.11 48.94 636.11 121.54 653.79 121.54 653.79 92.17 675.92 92.17 675.92 78.41 653.79 78.41 653.79 63.1 683.37 63.1"/>
        <g>
          <path class="cls-2" d="M84.25,63.44c-1.29,0-2.53,.22-3.68,.63,.76,1.1,1.2,2.43,1.2,3.86,0,3.76-3.05,6.81-6.81,6.81-.64,0-1.25-.09-1.83-.25,0,.03,0,.05,0,.08,0,6.14,4.98,11.13,11.13,11.13s11.13-4.98,11.13-11.13-4.98-11.13-11.13-11.13Z"/>
          <path class="cls-1" d="M131.21,113.25c-.24-.85-.8-2.22-1.68-3.11l-11.15-11.02c-1.22-1.22-2.81-1.82-4.41-1.82-.43,0-.87,.05-1.3,.14l-6.63-6.63c3.46-4.63,5.33-10.23,5.33-16.11,0-7.21-2.81-13.99-7.91-19.09-5.1-5.1-11.88-7.91-19.09-7.91,0,0,0,0,0,0-7.21,0-13.99,2.81-19.09,7.91s-7.91,11.88-7.91,19.09,2.81,13.99,7.91,19.09c5.1,5.1,11.88,7.91,19.09,7.91,0,0,0,0,0,0,5.88,0,11.48-1.87,16.11-5.33l6.63,6.63c-.42,1.99,.14,4.15,1.69,5.7l6.95,6.87,4.2,4.15c1.22,1.22,2.81,1.83,4.41,1.83s3.19-.61,4.41-1.83l.76-.75c1.55-1.55,2.24-3.75,1.68-5.71Zm-33.31-25.02c-3.73,3.73-8.63,5.6-13.53,5.6s-9.8-1.86-13.53-5.6c-7.46-7.46-7.46-19.6,0-27.06,3.73-3.73,8.63-5.59,13.53-5.6,4.9,0,9.8,1.86,13.53,5.6,7.46,7.46,7.46,19.6,0,27.06Z"/>
        </g>
      </g>
    </g>
  </g>
</svg>