<svg width="179" height="30" viewBox="0 0 179 30" fill="none" xmlns="http://www.w3.org/2000/svg"><path fill-rule="evenodd" clip-rule="evenodd" d="M179 25.714c0 2-1.524 3.524-3.524 3.524s-3.523-1.524-3.523-3.524 1.523-3.523 3.523-3.523S179 23.81 179 25.713zm-6.476 0c0 1.715 1.238 3.048 2.952 3.048 1.715 0 2.953-1.333 2.953-3.048 0-1.714-1.238-3.047-2.953-3.047-1.714.095-2.952 1.428-2.952 3.047zm2.191 2.096h-.477v-4.096h1.524c.953 0 1.333.381 1.333 1.143s-.476 1.048-1.047 1.143l1.238 1.81h-.571L175.572 26h-.857v1.81zm.666-2.286c.572 0 1.238 0 1.238-.667 0-.571-.476-.666-.952-.666h-.952v1.428h.666v-.095z" fill="#144BA0"/><path fill-rule="evenodd" clip-rule="evenodd" d="M42.524 30l6.381-30H7.191L.81 30h41.714z" fill="#fff"/><path fill-rule="evenodd" clip-rule="evenodd" d="M8.048 1.238S31.286 6 31.762 6.095c5.334.953 5.143 2 5.143 2 3.714 0 4.19.095 4.857.667 2 1.619-1.238 6.476-1.238 6.476-.476.286-34.952 13.62-34.952 13.62h36.095l5.905-27.81H8.048v.19z" fill="#144BA0"/><path fill-rule="evenodd" clip-rule="evenodd" d="M35.096 10.286c-.572.285-1.905.38-2.572.476-.667.095-.762.095-.762.38 0 .191.095.382.953.382 2 0 5.714-.762 6.761-.381.572.19.096 1.238-.38 2.571-.19.572.19.476.38.286.191-.19 1.143-2 1.239-2.857.19-1.238-.953-1.429-2.381-1.429h-2.286c-.095 0-.19.096-.381.286-.095 0-.286.095-.572.286z" fill="#144BA0"/><path fill-rule="evenodd" clip-rule="evenodd" d="M6.714 7.524l-4.57 21.333S16.047 22 17.761 21.143c3.524-1.81 8.286-4.19 12.762-5.714.857-.286 4.476-1.429 6.571-1.81.858-.19 1.143-.286 1.143-.476 0-.476-.857-.476-2.285-.381-4.286.19-12.381 3.428-14.762 4.667l-2.667-8.19h16.952c.762-2.096-10-1.81-10.38-1.906H6.713v.19zM57.477 11.714c-2.762 0-4.381-1.143-3.81-3.524.857-4.285 1.428-7.047 1.428-7.047h2.286s-1.428 6.476-1.333 6.38c-.381 1.62 0 2.572 1.714 2.572 1.715 0 2.572-.952 2.857-2.571.19-.953 1.334-6.381 1.334-6.381h2.285L62.715 8.19c-.381 2.381-2.477 3.524-5.239 3.524zM73.477 11.524h-2.858L68.049 3.81l-1.619 7.714h-2.095l2.285-10.381h2.953l2.476 7.81 1.62-7.81h2.094l-2.285 10.38zM78.048 11.524h-2.286l2.19-10.381h2.286l-2.19 10.38zM90.143 2.762h-3.238l-1.81 8.762H82.81l1.81-8.762H81.38l.381-1.62h8.762l-.38 1.62zM99.286 2.762h-5.238l-.572 2.762h4.572l-.381 1.524h-4.572l-.57 2.857h5.237l-.38 1.619h-7.525l2.19-10.381h7.525l-.286 1.619zM103.762 11.524h-4.666l2.19-10.381h5.048c3.142 0 4.19 2.095 3.714 4.762-.572 3.714-3.333 5.619-6.286 5.619zm1.81-8.762h-2.381l-1.524 7.143h1.619c2.571 0 4.095-1.715 4.476-4 .381-1.715-.286-3.143-2.19-3.143zM121.286 2.762h-2.476c-1.238 0-1.81.286-1.905.762-.381 1.619 4.095 2.952 3.714 5.524-.19 1.428-1.523 2.476-4.381 2.476h-3.523l.381-1.62h2.857c.857 0 1.904 0 2.19-.856.381-1.524-4.095-2.953-3.714-5.429.19-1.524 1.524-2.476 4.286-2.476h3.047l-.476 1.619zM131.191 2.762h-3.238l-1.81 8.762h-2.286l1.81-8.762h-3.238l.381-1.62h8.762l-.381 1.62zM131.667 11.524l.857-1.62h3.333l-.952-6.761-4.571 8.38h-2.286l5.905-10.38h2.762l1.619 10.38h-6.667zM147.667 2.762h-3.238l-1.81 8.762h-2.285l1.809-8.762h-3.238l.381-1.62h8.762l-.381 1.62zM156.714 2.762h-5.238l-.571 2.762h4.571l-.285 1.524h-4.572l-.666 2.857h5.333l-.381 1.619h-7.524l2.191-10.381h7.523l-.381 1.619zM164.905 2.762h-2.476c-1.238 0-1.81.286-1.905.762-.381 1.619 4.095 2.952 3.715 5.524-.191 1.428-1.524 2.476-4.381 2.476h-3.524l.381-1.62h2.857c.857 0 1.905 0 2.19-.856.286-1.524-4.095-2.953-3.714-5.429.191-1.524 1.524-2.476 4.286-2.476h3.047l-.476 1.619zM54.334 24.952c-.381 0-.762-.095-1.048-.095l-.095-1.524c.286 0 .667.096 1.047.096 1.524 0 2.096-1.048 2.286-1.715.286-1.143-.285-1.523-1.143-1.523h-1.904l-1.905 8.761h-2.286l2.19-10.38h4.953c2.286 0 2.476 2 2.19 3.238-.38 1.904-2.19 3.142-4.285 3.142zM63.762 29.048c-3.238 0-5.047-2.477-4.38-5.429.761-3.714 3.428-5.428 6.666-5.428 3.238 0 5.047 2.285 4.38 5.428-.856 3.81-3.428 5.429-6.666 5.429zm1.905-9.143c-2.095 0-3.429 1.333-4 3.714-.476 2 .286 3.714 2.38 3.714 2.096 0 3.43-1.428 4-3.714.477-2.095-.285-3.714-2.38-3.714zM78.715 20.095h-2.477c-1.238 0-1.81.286-1.904.762-.381 1.62 4.19 2.953 3.714 5.524-.19 1.428-1.524 2.476-4.381 2.476h-3.524l.381-1.619h2.857c.857 0 1.905 0 2.19-.857.286-1.524-4.095-2.952-3.714-5.429.19-1.523 1.524-2.476 4.286-2.476h3.048l-.477 1.62zM88.715 20.095h-3.239l-1.904 8.762h-2.286l1.905-8.762h-3.238l.38-1.619h8.763l-.382 1.62zM89.096 28.857l.952-1.619h3.238l-.857-6.667-4.572 8.286h-2.285l5.904-10.38h2.762l1.62 10.38h-6.762zM104.143 28.857h-7.047l2.19-10.38h2.286l-1.81 8.761h4.667l-.286 1.62zM116.524 20.095h-2.476c-1.238 0-1.81.286-1.905.762-.381 1.62 4.191 2.953 3.714 5.524-.19 1.428-1.523 2.476-4.381 2.476h-3.523l.381-1.619h2.857c.857 0 1.904 0 2.19-.857.286-1.524-4.095-2.952-3.714-5.429.19-1.523 1.524-2.476 4.286-2.476H117l-.476 1.62zM126.048 20.095h-5.238l-.572 2.762h4.572l-.286 1.524h-4.571l-.667 2.857h5.238l-.286 1.62h-7.619l2.286-10.382h7.524l-.381 1.62zM132.715 24.38l1.714 4.477h-2.476l-1.905-5.714h.857c1.143 0 2.286-.476 2.476-1.714.095-.667 0-1.334-1.238-1.334h-2.095l-1.905 8.762h-2.286l2.191-10.38h4.857c2 0 2.857.952 2.762 2.666-.191 1.905-1.429 3.047-2.952 3.238zM141.191 28.857h-2.762l-1.524-10.38h2.286l1.047 8.38 4.572-8.38h2.285l-5.904 10.38zM148.524 28.857h-2.286l2.191-10.38h2.285l-2.19 10.38zM160.048 20.286c-.667-.19-1.334-.381-2.476-.381-2.096 0-3.81 1.333-4.381 3.714-.477 2.381.666 3.714 2.761 3.714 1.048 0 2-.19 2.762-.38l-.571 1.809c-.857.095-1.714.19-2.571.19-3.239 0-5.524-1.714-4.762-5.428.761-3.715 3.904-5.429 7.047-5.429.762 0 1.524.096 2.286.19l-.095 2zM169.286 20.095h-5.238l-.572 2.762h4.572l-.286 1.524h-4.571l-.667 2.857h5.238l-.286 1.62h-7.619l2.286-10.382h7.524l-.381 1.62z" fill="#144BA0"/><path fill-rule="evenodd" clip-rule="evenodd" d="M170.334 15.429l.19-.858H52.239l-.096.858h118.191z" fill="#ED2129"/></svg>