<?xml version="1.0" encoding="UTF-8"?>
<svg id="Layer_2" data-name="Layer 2" xmlns="http://www.w3.org/2000/svg" viewBox="0 0 221.98 214.88">
  <defs>
    <style>
      .cls-1 {
        fill: #153f5e;
      }

      .cls-2 {
        fill: #35d87a;
      }
    </style>
  </defs>
  <g id="Layer_1-2" data-name="Layer 1">
    <g>
      <g>
        <path class="cls-1" d="M12.94,60.7c.94,.45,1.41,.68,2.35,1.13-1.49,3.18-2.19,4.82-3.46,8.21,1.05,.4,1.57,.6,2.62,1,.93-2.47,1.43-3.67,2.47-6.03,.92,.42,1.38,.63,2.3,1.05-1.02,2.3-1.51,3.47-2.41,5.88,2.01,.77,3.02,1.16,5.04,1.93-.69,1.82-1.01,2.75-1.63,4.64-5.07-1.65-7.61-2.47-12.68-4.12,1.87-5.75,2.96-8.49,5.4-13.7Z"/>
        <path class="cls-1" d="M31.47,53.42c-1.29,.88-2.6,1.43-3.95,1.63-1.35,.19-2.58-.03-3.7-.71-1.11-.69-1.88-1.7-2.26-3.07-.38-1.37-.37-2.91,.06-4.6s1.23-3.35,2.4-4.91c1.17-1.57,2.5-2.78,3.97-3.64,1.46-.85,2.89-1.25,4.26-1.22,1.36,.03,2.52,.52,3.48,1.41s1.53,2.01,1.75,3.34,.09,2.72-.36,4.18-1.19,2.86-2.21,4.23c-1.02,1.37-2.16,2.49-3.45,3.37Zm2.45-8.68c.01-1.15-.41-2.11-1.3-2.86-.9-.76-1.92-1.01-3.06-.72-1.14,.29-2.22,1.08-3.18,2.38-.97,1.31-1.45,2.59-1.43,3.79,.02,1.2,.54,2.14,1.52,2.81,.97,.67,2.01,.81,3.11,.46,1.1-.35,2.08-1.13,2.98-2.35,.89-1.2,1.35-2.35,1.36-3.5Z"/>
        <path class="cls-1" d="M42.56,22.81c2.01,2.5,3.01,3.75,5.02,6.25,.5,.62,1.1,.94,1.78,.95,.68,.01,1.42-.29,2.24-.9,.81-.61,1.31-1.23,1.51-1.9s.06-1.33-.4-1.98c-1.84-2.62-2.77-3.93-4.61-6.55,1.57-1.1,2.37-1.62,3.98-2.64,1.72,2.69,2.59,4.04,4.31,6.73,.64,1.01,.9,2.04,.79,3.09-.11,1.05-.5,2.06-1.18,3.03-.67,.97-1.55,1.86-2.64,2.67-1.09,.82-2.17,1.41-3.28,1.78-1.1,.37-2.17,.45-3.2,.24-1.03-.21-1.95-.75-2.74-1.65-2.11-2.4-3.17-3.6-5.28-6,1.46-1.28,2.2-1.91,3.7-3.11Z"/>
        <path class="cls-1" d="M82.33,16.79c-1.58,.48-2.36,.73-3.92,1.28-3.73-2.19-5.69-3.2-9.79-5.01,1.34,3.01,2.02,4.52,3.36,7.53-1.52,.66-2.27,1.01-3.76,1.73-2.39-4.79-3.58-7.18-5.97-11.96,1.7-.83,2.56-1.22,4.29-1.98,4.24,1.77,6.28,2.76,10.15,4.91-1.13-3.11-1.69-4.67-2.82-7.78,1.78-.62,2.67-.91,4.47-1.46,1.6,5.09,2.4,7.64,4,12.74Z"/>
        <path class="cls-1" d="M102.09,.43c1.55,.44,2.75,1.15,3.6,2.12,.86,.97,1.29,2.11,1.34,3.43,.05,1.3-.29,2.47-.99,3.52-.7,1.05-1.7,1.89-3,2.55-1.3,.66-2.81,1.09-4.56,1.31-2.51,.32-3.76,.52-6.24,.99-1.05-5.23-1.57-7.85-2.62-13.08,2.83-.54,4.26-.77,7.12-1.13,2.01-.25,3.81-.15,5.35,.29Zm-.63,8.76c.83-.75,1.21-1.73,1.11-2.95s-.65-2.14-1.66-2.74c-1.01-.59-2.39-.8-4.11-.58-.86,.11-1.29,.17-2.14,.3,.48,3.06,.72,4.59,1.19,7.66,.79-.12,1.19-.17,1.98-.28,1.59-.21,2.79-.66,3.62-1.41Z"/>
        <path class="cls-1" d="M131.82,14.42c-.89-.51-1.57-1.12-2.04-1.84-.47-.72-.64-1.51-.52-2.37,1.8,.32,2.69,.5,4.47,.91-.05,.5,.08,.91,.39,1.25,.31,.34,.76,.58,1.35,.72,.61,.15,1.11,.17,1.52,.05,.41-.12,.67-.37,.78-.75,.09-.32,.02-.62-.21-.9-.23-.28-.53-.55-.91-.79-.38-.24-.94-.54-1.67-.9-1.06-.52-1.93-.98-2.59-1.39-.67-.41-1.21-.91-1.64-1.52-.43-.61-.57-1.32-.42-2.14,.23-1.22,1.03-2.07,2.44-2.51,1.4-.44,3.15-.43,5.17,.07,2.06,.51,3.62,1.31,4.65,2.35,1.03,1.04,1.37,2.18,1.07,3.4-1.87-.59-2.81-.86-4.71-1.37,.08-.42-.04-.81-.38-1.15-.33-.34-.81-.59-1.44-.74-.54-.13-1-.13-1.38,0-.38,.13-.61,.38-.7,.77-.1,.42,.1,.81,.59,1.17,.49,.36,1.28,.81,2.35,1.38,1.06,.57,1.91,1.11,2.54,1.57,.63,.46,1.12,1.01,1.47,1.65,.35,.64,.39,1.34,.14,2.1-.24,.72-.7,1.3-1.36,1.74-.67,.44-1.5,.71-2.51,.8-1,.1-2.11-.02-3.34-.32-1.2-.3-2.24-.7-3.13-1.21Z"/>
        <path class="cls-1" d="M170.38,16.33c-2.91,4.49-4.37,6.74-7.28,11.23-1.41-.9-2.12-1.33-3.57-2.17,1.12-1.9,1.67-2.85,2.79-4.75-2.37-1.37-3.58-2.01-6.03-3.21-.99,1.97-1.48,2.95-2.46,4.92-1.49-.73-2.24-1.08-3.76-1.74,2.18-4.88,3.27-7.32,5.46-12.2,1.73,.75,2.59,1.15,4.29,1.98-.94,1.87-1.41,2.81-2.34,4.69,2.52,1.23,3.76,1.89,6.19,3.29,1.06-1.81,1.59-2.71,2.66-4.52,1.64,.95,2.46,1.44,4.06,2.47Z"/>
        <path class="cls-1" d="M181.93,28.36c-.72,.81-1.08,1.21-1.8,2.02,1.85,1.65,2.75,2.51,4.5,4.29-.71,.71-1.07,1.07-1.78,1.78-1.71-1.74-2.59-2.57-4.39-4.18-.78,.88-1.17,1.32-1.95,2.19,1.98,1.77,2.94,2.69,4.81,4.62-.75,.73-1.12,1.1-1.87,1.83-3.02-3.11-4.61-4.57-7.92-7.25,3.38-4.15,5.07-6.23,8.45-10.38,3.77,3.06,5.58,4.72,9.02,8.26-.75,.73-1.12,1.1-1.87,1.83-2.02-2.09-3.07-3.09-5.21-5Z"/>
        <path class="cls-1" d="M190.97,50.96c1.37,1.97,2.03,2.99,3.3,5.08-.85,.53-1.28,.8-2.13,1.33-2.18-3.6-3.35-5.31-5.84-8.54,4.21-3.31,6.31-4.96,10.52-8.26,1.23,1.6,1.83,2.42,2.99,4.09-3.53,2.52-5.3,3.78-8.84,6.3Z"/>
        <path class="cls-1" d="M214.44,74.4c-.99,.32-1.48,.48-2.47,.8-1.14-3.51-1.77-5.22-3.14-8.52-1.04,.44-1.55,.66-2.59,1.09,.99,2.41,1.46,3.64,2.34,6.16-.95,.33-1.43,.5-2.38,.83-.85-2.46-1.31-3.66-2.28-6.01-1.99,.84-2.98,1.26-4.97,2.1-.73-1.78-1.12-2.65-1.92-4.36,4.81-2.32,7.21-3.48,12.01-5.8,2.44,5.2,3.53,7.94,5.4,13.7Z"/>
      </g>
      <g>
        <path class="cls-1" d="M24.9,148.36c-.94,.45-1.41,.68-2.35,1.13-1.38-2.94-2.02-4.45-3.2-7.59-1.05,.4-1.57,.6-2.62,1,.91,2.41,1.39,3.59,2.42,5.89-.92,.42-1.38,.63-2.3,1.05-1.05-2.36-1.54-3.56-2.48-6.03-2.01,.77-3.02,1.16-5.04,1.93-.78-2.08-1.15-3.14-1.85-5.29,5.07-1.65,7.61-2.47,12.68-4.12,1.64,5.05,2.6,7.46,4.74,12.03Z"/>
        <path class="cls-1" d="M21.63,168.16c-.43-1.69-.44-3.24-.05-4.61,.38-1.37,1.15-2.39,2.26-3.07s2.35-.9,3.69-.71c1.34,.2,2.65,.75,3.94,1.63,1.29,.88,2.43,2,3.45,3.37s1.76,2.77,2.21,4.24c.46,1.47,.59,2.85,.37,4.17-.22,1.32-.79,2.43-1.75,3.32-.96,.89-2.12,1.37-3.5,1.4-1.38,.03-2.81-.36-4.26-1.21-1.46-.85-2.79-2.06-3.96-3.63-1.17-1.57-1.97-3.22-2.4-4.91Zm7.95,5.49c1.15,.29,2.16,.04,3.06-.72,.9-.76,1.33-1.72,1.31-2.87-.02-1.15-.48-2.3-1.37-3.5-.9-1.21-1.88-2-2.97-2.35-1.09-.35-2.13-.21-3.11,.46-.97,.67-1.49,1.6-1.52,2.8-.03,1.2,.44,2.49,1.42,3.8,.96,1.29,2.04,2.08,3.19,2.37Z"/>
        <path class="cls-1" d="M50.91,181.63c-2.01,2.5-3.01,3.75-5.02,6.25-.5,.63-.67,1.28-.5,1.97,.17,.69,.7,1.37,1.58,2.03s1.68,.97,2.41,.95c.72-.02,1.31-.36,1.77-1.01,1.84-2.62,2.77-3.93,4.61-6.55,1.38,.96,2.08,1.43,3.49,2.32-1.72,2.69-2.59,4.04-4.31,6.73-.64,1.01-1.49,1.67-2.56,1.96-1.06,.3-2.24,.27-3.51-.1-1.27-.37-2.54-1.01-3.79-1.95-1.25-.93-2.22-1.96-2.91-3.06-.69-1.1-1.02-2.2-1.01-3.29,.01-1.09,.42-2.08,1.21-2.98,2.11-2.4,3.17-3.6,5.28-6,1.28,1.13,1.93,1.67,3.25,2.73Z"/>
        <path class="cls-1" d="M78.31,210.83c-1.8-.55-2.69-.84-4.47-1.46-1.85-4.14-2.64-6.23-3.97-10.4-1.34,3.01-2.02,4.52-3.36,7.53-1.73-.75-2.59-1.15-4.29-1.98,2.39-4.79,3.58-7.18,5.97-11.96,1.49,.73,2.25,1.07,3.77,1.73,1.19,4.13,1.91,6.2,3.62,10.3,1.13-3.11,1.69-4.67,2.82-7.78,1.56,.55,2.34,.8,3.92,1.28-1.6,5.09-2.4,7.64-4,12.74Z"/>
        <path class="cls-1" d="M103.04,202.84c1.29,.66,2.29,1.5,2.99,2.54,.7,1.04,1.05,2.21,1,3.53-.05,1.3-.49,2.45-1.34,3.42-.86,.97-2.06,1.69-3.62,2.13-1.56,.44-3.35,.54-5.34,.29-2.86-.36-4.29-.59-7.12-1.13,1.05-5.23,1.57-7.85,2.62-13.08,2.49,.48,3.74,.68,6.25,.99,1.77,.22,3.28,.65,4.57,1.31Zm-2.14,8.53c1.01-.58,1.56-1.49,1.66-2.72,.1-1.22-.28-2.21-1.11-2.97-.83-.76-2.03-1.23-3.62-1.43-.8-.1-1.19-.16-1.99-.28-.48,3.06-.72,4.59-1.19,7.66,.86,.13,1.28,.19,2.14,.3,1.71,.22,3.09,.02,4.1-.56Z"/>
        <path class="cls-1" d="M134.58,212.82c-1.16-.08-2.12-.37-2.88-.85s-1.24-1.16-1.43-2.02c1.89-.34,2.84-.53,4.71-.95,.18,.47,.5,.78,.96,.94,.46,.16,1.01,.16,1.66,0,.66-.16,1.15-.41,1.47-.72,.32-.31,.43-.66,.32-1.04-.09-.32-.31-.54-.67-.67-.35-.13-.76-.2-1.23-.23-.47-.03-1.12-.02-1.96-.01-1.21,.02-2.21-.05-2.99-.16-.78-.11-1.48-.37-2.1-.79-.62-.41-1-1.03-1.15-1.85-.23-1.22,.17-2.27,1.16-3.19,.99-.91,2.35-1.56,4.13-1.99,1.81-.44,3.34-.51,4.65-.16,1.31,.35,2.21,1.08,2.68,2.25-1.77,.56-2.66,.82-4.45,1.29-.15-.41-.44-.68-.87-.82-.43-.14-.93-.14-1.51,0-.49,.12-.87,.32-1.13,.59s-.34,.6-.25,.98c.1,.42,.44,.69,1.02,.8,.58,.11,1.47,.16,2.66,.15,1.19-.02,2.18,0,2.95,.05,.78,.05,1.5,.24,2.16,.56,.67,.32,1.13,.86,1.38,1.62,.24,.72,.2,1.46-.14,2.22-.34,.75-.96,1.46-1.87,2.1-.91,.64-2.08,1.15-3.48,1.5-1.37,.34-2.64,.47-3.8,.39Z"/>
        <path class="cls-1" d="M163.13,187.31c2.91,4.49,4.37,6.74,7.28,11.23-1.61,1.03-2.42,1.52-4.07,2.47-1.12-1.9-1.67-2.85-2.79-4.75-2.43,1.4-3.67,2.06-6.18,3.29,.99,1.97,1.48,2.95,2.46,4.92-1.7,.83-2.56,1.23-4.29,1.98-2.18-4.88-3.27-7.32-5.46-12.2,1.52-.66,2.27-1.01,3.76-1.74,.94,1.87,1.41,2.81,2.34,4.69,2.45-1.2,3.65-1.84,6.02-3.2-1.06-1.81-1.59-2.71-2.66-4.52,1.44-.83,2.16-1.27,3.57-2.17Z"/>
        <path class="cls-1" d="M176.54,180.41c.72,.81,1.08,1.21,1.8,2.02,1.8-1.61,2.68-2.44,4.39-4.18,.71,.71,1.07,1.07,1.78,1.78-1.75,1.78-2.65,2.63-4.5,4.28,.78,.88,1.17,1.32,1.95,2.19,2.14-1.92,3.19-2.92,5.21-5,.75,.73,1.12,1.1,1.87,1.83-3.44,3.55-5.26,5.21-9.03,8.27-3.38-4.15-5.07-6.23-8.45-10.38,3.31-2.69,4.9-4.14,7.92-7.26,.75,.73,1.12,1.1,1.87,1.83-1.87,1.93-2.83,2.85-4.81,4.62Z"/>
        <path class="cls-1" d="M197.81,168.74c1.49-2.14,2.21-3.25,3.59-5.52,.85,.53,1.28,.8,2.13,1.33-2.49,4.1-3.83,6.05-6.66,9.74-4.21-3.31-6.31-4.96-10.52-8.26,1.08-1.4,1.6-2.12,2.63-3.59,3.53,2.52,5.3,3.78,8.84,6.3Z"/>
        <path class="cls-1" d="M201.82,136.33c.99,.32,1.48,.48,2.47,.8-1.06,3.25-1.64,4.82-2.9,7.88,1.04,.44,1.55,.66,2.59,1.09,.97-2.35,1.43-3.55,2.28-6.02,.95,.33,1.43,.5,2.38,.83-.87,2.52-1.34,3.76-2.34,6.17,1.99,.84,2.98,1.26,4.97,2.1-.84,2.03-1.27,3.02-2.19,4.97-4.81-2.32-7.21-3.48-12.01-5.8,2.14-4.57,3.1-6.97,4.74-12.03Z"/>
      </g>
      <circle class="cls-2" cx="214.62" cy="104.23" r="7.36"/>
      <circle class="cls-2" cx="7.36" cy="104.23" r="7.36"/>
      <g>
        <path class="cls-2" d="M97.1,75.16c-1.77,0-3.47,.3-5.05,.86,1.04,1.51,1.65,3.33,1.65,5.3,0,5.16-4.18,9.35-9.35,9.35-.87,0-1.72-.12-2.52-.35,0,.04,0,.07,0,.11,0,8.43,6.84,15.27,15.27,15.27s15.27-6.84,15.27-15.27-6.84-15.27-15.27-15.27Z"/>
        <path class="cls-2" d="M161.55,143.51l-.62,.09c.21-.08,.41-.12,.62-.09-.33-1.56-1.1-3.05-2.31-4.26l-15.3-15.12c-1.67-1.67-3.86-2.5-6.05-2.5-.6,0-1.19,.06-1.78,.19l-9.1-9.1c4.74-6.35,7.31-14.03,7.31-22.1,0-9.89-3.85-19.2-10.85-26.19-7-7-16.3-10.85-26.19-10.85,0,0,0,0,0,0-9.89,0-19.2,3.85-26.19,10.85-7,7-10.85,16.3-10.85,26.19s3.85,19.2,10.85,26.19c7,7,16.3,10.85,26.19,10.85,0,0,0,0,0,0,8.07,0,15.75-2.57,22.1-7.31l9.1,9.1c-.58,2.74,.19,5.7,2.32,7.83l9.53,9.42,5.76,5.7c1.67,1.67,3.86,2.51,6.05,2.51s4.38-.84,6.05-2.51l1.04-1.04c2.13-2.13,2.89-5.1,2.31-7.84Zm-45.71-34.34c-5.12,5.12-11.84,7.68-18.57,7.68s-13.45-2.56-18.57-7.68c-10.24-10.24-10.24-26.89,0-37.13,5.12-5.12,11.84-7.68,18.57-7.68,6.72,0,13.45,2.56,18.57,7.68,10.24,10.24,10.24,26.89,0,37.13Z"/>
      </g>
    </g>
  </g>
</svg>